<?xml version="1.0" encoding="UTF-8"?>
<svg xmlns="http://www.w3.org/2000/svg" width="350" height="354" viewBox="66 418 350 354" shape-rendering="geometricPrecision">
  <path d="M 219.0 691.0 L 169.0 691.0 L 139.0 750.0 L 150.0 750.0 L 151.0 749.0 L 164.0 748.0 L 176.0 744.0 L 188.0 737.0 L 201.0 724.0 Z
M 87.0 670.0 L 87.0 679.0 L 91.0 689.0 L 98.0 695.0 L 106.0 698.0 L 114.0 698.0 L 124.0 694.0 L 131.0 686.0 L 131.0 684.0 L 134.0 681.0 L 208.0 681.0 L 209.0 680.0 L 225.0 679.0 L 276.0 583.0 L 279.0 581.0 L 281.0 583.0 L 289.0 600.0 L 291.0 602.0 L 308.0 636.0 L 310.0 638.0 L 350.0 717.0 L 358.0 728.0 L 368.0 737.0 L 374.0 741.0 L 385.0 746.0 L 388.0 746.0 L 397.0 749.0 L 416.0 750.0 L 416.0 748.0 L 404.0 724.0 L 402.0 722.0 L 388.0 693.0 L 386.0 691.0 L 386.0 689.0 L 384.0 687.0 L 358.0 635.0 L 356.0 633.0 L 345.0 610.0 L 343.0 608.0 L 332.0 585.0 L 330.0 583.0 L 284.0 492.0 L 280.0 489.0 L 277.0 489.0 L 273.0 492.0 L 237.0 561.0 L 236.0 580.0 L 232.0 591.0 L 224.0 599.0 L 215.0 603.0 L 208.0 618.0 L 206.0 620.0 L 181.0 668.0 L 133.0 668.0 L 130.0 662.0 L 123.0 655.0 L 116.0 652.0 L 104.0 652.0 L 97.0 655.0 L 91.0 661.0 Z
M 107.0 664.0 L 113.0 664.0 L 115.0 665.0 L 121.0 672.0 L 120.0 680.0 L 116.0 684.0 L 111.0 686.0 L 104.0 684.0 L 99.0 677.0 L 100.0 670.0 Z" fill="#2D2E31" fill-rule="evenodd"/>
  <path d="M 278.0 636.0 L 276.0 647.0 L 272.0 658.0 L 269.0 663.0 L 262.0 670.0 L 257.0 673.0 L 246.0 677.0 L 237.0 678.0 L 237.0 679.0 L 244.0 680.0 L 259.0 686.0 L 269.0 695.0 L 274.0 705.0 L 277.0 714.0 L 278.0 721.0 L 281.0 714.0 L 282.0 707.0 L 288.0 695.0 L 296.0 687.0 L 306.0 682.0 L 319.0 679.0 L 319.0 678.0 L 311.0 677.0 L 298.0 672.0 L 288.0 663.0 L 283.0 653.0 L 280.0 640.0 Z
M 212.0 572.0 L 208.0 575.0 L 206.0 579.0 L 206.0 584.0 L 211.0 590.0 L 213.0 591.0 L 218.0 591.0 L 224.0 587.0 L 225.0 585.0 L 225.0 578.0 L 224.0 576.0 L 219.0 572.0 Z
M 224.0 533.0 L 222.0 532.0 L 217.0 532.0 L 204.0 537.0 L 189.0 548.0 L 181.0 557.0 L 172.0 573.0 L 168.0 586.0 L 168.0 593.0 L 172.0 597.0 L 178.0 597.0 L 181.0 595.0 L 183.0 591.0 L 183.0 587.0 L 185.0 581.0 L 190.0 571.0 L 200.0 559.0 L 209.0 552.0 L 217.0 548.0 L 222.0 547.0 L 226.0 544.0 L 227.0 542.0 L 227.0 537.0 Z
M 228.0 489.0 L 220.0 489.0 L 201.0 495.0 L 179.0 507.0 L 169.0 515.0 L 159.0 525.0 L 147.0 541.0 L 136.0 563.0 L 133.0 572.0 L 133.0 575.0 L 131.0 580.0 L 131.0 586.0 L 130.0 587.0 L 130.0 596.0 L 134.0 600.0 L 138.0 601.0 L 141.0 600.0 L 144.0 597.0 L 147.0 580.0 L 153.0 563.0 L 160.0 550.0 L 171.0 535.0 L 185.0 522.0 L 201.0 512.0 L 213.0 507.0 L 230.0 503.0 L 233.0 498.0 L 232.0 492.0 Z
M 229.0 439.0 L 223.0 438.0 L 222.0 439.0 L 216.0 439.0 L 215.0 440.0 L 206.0 441.0 L 185.0 448.0 L 167.0 457.0 L 156.0 464.0 L 142.0 475.0 L 128.0 489.0 L 112.0 510.0 L 107.0 520.0 L 105.0 522.0 L 96.0 542.0 L 89.0 566.0 L 89.0 571.0 L 87.0 578.0 L 87.0 587.0 L 86.0 588.0 L 86.0 594.0 L 91.0 600.0 L 97.0 601.0 L 100.0 600.0 L 104.0 595.0 L 104.0 587.0 L 105.0 586.0 L 105.0 579.0 L 106.0 578.0 L 107.0 568.0 L 114.0 545.0 L 125.0 523.0 L 141.0 501.0 L 161.0 482.0 L 176.0 472.0 L 197.0 462.0 L 218.0 456.0 L 224.0 456.0 L 230.0 454.0 L 233.0 449.0 L 233.0 444.0 Z" fill="#BF5A38" fill-rule="evenodd"/>
</svg>
