<?xml version="1.0" encoding="UTF-8"?>
<svg xmlns="http://www.w3.org/2000/svg" width="1161" height="354" viewBox="66 418 1161 354" shape-rendering="geometricPrecision">
  <path d="M 219.0 691.0 L 169.0 691.0 L 139.0 750.0 L 150.0 750.0 L 151.0 749.0 L 164.0 748.0 L 176.0 744.0 L 188.0 737.0 L 201.0 724.0 Z
M 873.0 594.0 L 873.0 690.0 L 895.0 690.0 L 895.0 594.0 L 894.0 595.0 L 874.0 595.0 Z
M 1012.0 595.0 L 990.0 595.0 L 990.0 604.0 L 988.0 605.0 L 983.0 600.0 L 972.0 594.0 L 962.0 593.0 L 961.0 592.0 L 948.0 593.0 L 934.0 599.0 L 923.0 609.0 L 916.0 622.0 L 916.0 625.0 L 914.0 630.0 L 913.0 643.0 L 914.0 644.0 L 914.0 651.0 L 917.0 661.0 L 925.0 674.0 L 929.0 678.0 L 938.0 684.0 L 951.0 688.0 L 967.0 688.0 L 968.0 687.0 L 971.0 687.0 L 980.0 683.0 L 989.0 676.0 L 990.0 677.0 L 990.0 690.0 L 988.0 697.0 L 985.0 702.0 L 979.0 708.0 L 969.0 712.0 L 953.0 712.0 L 952.0 711.0 L 949.0 711.0 L 943.0 709.0 L 930.0 700.0 L 918.0 715.0 L 922.0 720.0 L 928.0 724.0 L 942.0 730.0 L 952.0 731.0 L 953.0 732.0 L 969.0 732.0 L 970.0 731.0 L 980.0 730.0 L 990.0 726.0 L 995.0 723.0 L 1004.0 714.0 L 1008.0 707.0 L 1011.0 698.0 L 1011.0 693.0 L 1012.0 692.0 Z
M 956.0 613.0 L 965.0 612.0 L 966.0 613.0 L 971.0 613.0 L 974.0 615.0 L 976.0 615.0 L 986.0 624.0 L 990.0 634.0 L 990.0 647.0 L 986.0 656.0 L 983.0 660.0 L 978.0 664.0 L 969.0 668.0 L 957.0 668.0 L 948.0 664.0 L 941.0 657.0 L 937.0 648.0 L 936.0 637.0 L 940.0 625.0 L 949.0 616.0 Z
M 803.0 593.0 L 796.0 595.0 L 788.0 599.0 L 783.0 603.0 L 779.0 609.0 L 777.0 615.0 L 777.0 628.0 L 780.0 635.0 L 787.0 642.0 L 795.0 646.0 L 804.0 649.0 L 808.0 649.0 L 809.0 650.0 L 817.0 651.0 L 827.0 654.0 L 833.0 661.0 L 832.0 668.0 L 829.0 671.0 L 823.0 674.0 L 807.0 674.0 L 794.0 669.0 L 786.0 662.0 L 773.0 677.0 L 784.0 685.0 L 797.0 690.0 L 809.0 691.0 L 810.0 692.0 L 820.0 692.0 L 821.0 691.0 L 832.0 690.0 L 843.0 685.0 L 847.0 682.0 L 851.0 677.0 L 854.0 670.0 L 854.0 665.0 L 855.0 664.0 L 853.0 652.0 L 848.0 644.0 L 839.0 638.0 L 827.0 634.0 L 810.0 631.0 L 803.0 628.0 L 799.0 624.0 L 798.0 619.0 L 803.0 612.0 L 808.0 610.0 L 822.0 610.0 L 823.0 611.0 L 826.0 611.0 L 840.0 619.0 L 850.0 608.0 L 851.0 605.0 L 845.0 600.0 L 831.0 594.0 L 818.0 593.0 L 817.0 592.0 Z
M 744.0 599.0 L 734.0 594.0 L 718.0 592.0 L 717.0 593.0 L 707.0 594.0 L 699.0 598.0 L 690.0 606.0 L 689.0 605.0 L 689.0 595.0 L 688.0 594.0 L 687.0 595.0 L 667.0 595.0 L 667.0 690.0 L 689.0 690.0 L 689.0 636.0 L 690.0 635.0 L 690.0 630.0 L 693.0 623.0 L 700.0 616.0 L 707.0 613.0 L 720.0 613.0 L 723.0 614.0 L 732.0 622.0 L 735.0 629.0 L 735.0 690.0 L 757.0 690.0 L 758.0 689.0 L 758.0 628.0 L 757.0 627.0 L 757.0 620.0 L 753.0 609.0 Z
M 1156.0 569.0 L 1156.0 593.0 L 1154.0 595.0 L 1139.0 595.0 L 1139.0 614.0 L 1141.0 613.0 L 1142.0 614.0 L 1155.0 614.0 L 1156.0 615.0 L 1156.0 665.0 L 1157.0 666.0 L 1157.0 671.0 L 1159.0 677.0 L 1165.0 685.0 L 1178.0 691.0 L 1197.0 691.0 L 1206.0 688.0 L 1205.0 687.0 L 1204.0 670.0 L 1203.0 669.0 L 1199.0 671.0 L 1186.0 671.0 L 1180.0 666.0 L 1179.0 663.0 L 1179.0 615.0 L 1184.0 613.0 L 1192.0 613.0 L 1193.0 614.0 L 1195.0 613.0 L 1203.0 613.0 L 1203.0 594.0 L 1181.0 595.0 L 1179.0 593.0 L 1179.0 569.0 Z
M 1035.0 552.0 L 1035.0 690.0 L 1057.0 690.0 L 1058.0 689.0 L 1058.0 631.0 L 1059.0 630.0 L 1059.0 627.0 L 1062.0 622.0 L 1068.0 616.0 L 1075.0 613.0 L 1088.0 613.0 L 1091.0 614.0 L 1097.0 618.0 L 1102.0 625.0 L 1103.0 634.0 L 1104.0 635.0 L 1104.0 688.0 L 1103.0 689.0 L 1104.0 690.0 L 1126.0 690.0 L 1126.0 625.0 L 1125.0 624.0 L 1124.0 616.0 L 1119.0 606.0 L 1109.0 597.0 L 1102.0 594.0 L 1092.0 593.0 L 1091.0 592.0 L 1079.0 593.0 L 1073.0 595.0 L 1066.0 599.0 L 1059.0 605.0 L 1058.0 604.0 L 1058.0 552.0 Z
M 877.0 552.0 L 873.0 555.0 L 870.0 560.0 L 870.0 569.0 L 871.0 572.0 L 876.0 577.0 L 881.0 579.0 L 891.0 578.0 L 894.0 576.0 L 898.0 571.0 L 899.0 562.0 L 897.0 557.0 L 893.0 553.0 L 889.0 551.0 L 880.0 551.0 Z
M 87.0 670.0 L 87.0 679.0 L 91.0 689.0 L 98.0 695.0 L 106.0 698.0 L 114.0 698.0 L 124.0 694.0 L 131.0 686.0 L 131.0 684.0 L 134.0 681.0 L 208.0 681.0 L 209.0 680.0 L 225.0 679.0 L 276.0 583.0 L 279.0 581.0 L 281.0 583.0 L 289.0 600.0 L 291.0 602.0 L 308.0 636.0 L 310.0 638.0 L 350.0 717.0 L 358.0 728.0 L 368.0 737.0 L 374.0 741.0 L 385.0 746.0 L 388.0 746.0 L 397.0 749.0 L 416.0 750.0 L 416.0 748.0 L 404.0 724.0 L 402.0 722.0 L 388.0 693.0 L 386.0 691.0 L 386.0 689.0 L 384.0 687.0 L 358.0 635.0 L 356.0 633.0 L 345.0 610.0 L 343.0 608.0 L 332.0 585.0 L 330.0 583.0 L 284.0 492.0 L 280.0 489.0 L 277.0 489.0 L 273.0 492.0 L 237.0 561.0 L 236.0 580.0 L 232.0 591.0 L 224.0 599.0 L 215.0 603.0 L 208.0 618.0 L 206.0 620.0 L 181.0 668.0 L 133.0 668.0 L 130.0 662.0 L 123.0 655.0 L 116.0 652.0 L 104.0 652.0 L 97.0 655.0 L 91.0 661.0 Z
M 107.0 664.0 L 113.0 664.0 L 115.0 665.0 L 121.0 672.0 L 120.0 680.0 L 116.0 684.0 L 111.0 686.0 L 104.0 684.0 L 99.0 677.0 L 100.0 670.0 Z" fill="#2D2E31" fill-rule="evenodd"/>
  <path d="M 278.0 636.0 L 276.0 647.0 L 272.0 658.0 L 269.0 663.0 L 262.0 670.0 L 257.0 673.0 L 246.0 677.0 L 237.0 678.0 L 237.0 679.0 L 244.0 680.0 L 259.0 686.0 L 269.0 695.0 L 274.0 705.0 L 277.0 714.0 L 278.0 721.0 L 281.0 714.0 L 282.0 707.0 L 288.0 695.0 L 296.0 687.0 L 306.0 682.0 L 319.0 679.0 L 319.0 678.0 L 311.0 677.0 L 298.0 672.0 L 288.0 663.0 L 283.0 653.0 L 280.0 640.0 Z
M 872.0 594.0 L 872.0 690.0 L 873.0 691.0 L 896.0 691.0 L 896.0 594.0 Z
M 873.0 594.0 L 895.0 594.0 L 896.0 595.0 L 896.0 690.0 L 895.0 691.0 L 873.0 691.0 L 872.0 690.0 L 872.0 595.0 Z
M 212.0 572.0 L 208.0 575.0 L 206.0 579.0 L 206.0 584.0 L 211.0 590.0 L 213.0 591.0 L 218.0 591.0 L 224.0 587.0 L 225.0 585.0 L 225.0 578.0 L 224.0 576.0 L 219.0 572.0 Z
M 616.0 551.0 L 616.0 690.0 L 617.0 691.0 L 640.0 691.0 L 641.0 690.0 L 641.0 551.0 Z
M 521.0 551.0 L 465.0 690.0 L 466.0 691.0 L 490.0 691.0 L 492.0 690.0 L 500.0 667.0 L 503.0 663.0 L 563.0 663.0 L 572.0 684.0 L 573.0 689.0 L 575.0 691.0 L 599.0 691.0 L 600.0 689.0 L 597.0 683.0 L 596.0 678.0 L 594.0 675.0 L 594.0 673.0 L 592.0 670.0 L 592.0 668.0 L 590.0 665.0 L 590.0 663.0 L 588.0 660.0 L 588.0 658.0 L 586.0 655.0 L 586.0 653.0 L 584.0 650.0 L 574.0 623.0 L 571.0 618.0 L 561.0 591.0 L 558.0 586.0 L 558.0 584.0 L 556.0 581.0 L 556.0 579.0 L 554.0 576.0 L 554.0 574.0 L 552.0 571.0 L 545.0 552.0 L 544.0 551.0 Z
M 532.0 586.0 L 533.0 586.0 L 535.0 589.0 L 538.0 599.0 L 544.0 612.0 L 545.0 617.0 L 551.0 630.0 L 552.0 635.0 L 554.0 638.0 L 554.0 641.0 L 553.0 642.0 L 512.0 642.0 L 511.0 641.0 L 515.0 628.0 L 517.0 625.0 L 520.0 615.0 L 522.0 612.0 L 525.0 602.0 Z
M 224.0 533.0 L 222.0 532.0 L 217.0 532.0 L 204.0 537.0 L 189.0 548.0 L 181.0 557.0 L 172.0 573.0 L 168.0 586.0 L 168.0 593.0 L 172.0 597.0 L 178.0 597.0 L 181.0 595.0 L 183.0 591.0 L 183.0 587.0 L 185.0 581.0 L 190.0 571.0 L 200.0 559.0 L 209.0 552.0 L 217.0 548.0 L 222.0 547.0 L 226.0 544.0 L 227.0 542.0 L 227.0 537.0 Z
M 228.0 489.0 L 220.0 489.0 L 201.0 495.0 L 179.0 507.0 L 169.0 515.0 L 159.0 525.0 L 147.0 541.0 L 136.0 563.0 L 133.0 572.0 L 133.0 575.0 L 131.0 580.0 L 131.0 586.0 L 130.0 587.0 L 130.0 596.0 L 134.0 600.0 L 138.0 601.0 L 141.0 600.0 L 144.0 597.0 L 147.0 580.0 L 153.0 563.0 L 160.0 550.0 L 171.0 535.0 L 185.0 522.0 L 201.0 512.0 L 213.0 507.0 L 230.0 503.0 L 233.0 498.0 L 232.0 492.0 Z
M 229.0 439.0 L 223.0 438.0 L 222.0 439.0 L 216.0 439.0 L 215.0 440.0 L 206.0 441.0 L 185.0 448.0 L 167.0 457.0 L 156.0 464.0 L 142.0 475.0 L 128.0 489.0 L 112.0 510.0 L 107.0 520.0 L 105.0 522.0 L 96.0 542.0 L 89.0 566.0 L 89.0 571.0 L 87.0 578.0 L 87.0 587.0 L 86.0 588.0 L 86.0 594.0 L 91.0 600.0 L 97.0 601.0 L 100.0 600.0 L 104.0 595.0 L 104.0 587.0 L 105.0 586.0 L 105.0 579.0 L 106.0 578.0 L 107.0 568.0 L 114.0 545.0 L 125.0 523.0 L 141.0 501.0 L 161.0 482.0 L 176.0 472.0 L 197.0 462.0 L 218.0 456.0 L 224.0 456.0 L 230.0 454.0 L 233.0 449.0 L 233.0 444.0 Z" fill="#BF5A38" fill-rule="evenodd"/>
</svg>
