<?xml version="1.0" standalone="no"?>
<!DOCTYPE svg PUBLIC "-//W3C//DTD SVG 20010904//EN"
 "http://www.w3.org/TR/2001/REC-SVG-20010904/DTD/svg10.dtd">
<svg version="1.0" xmlns="http://www.w3.org/2000/svg"
 width="1800.000000pt" height="1800.000000pt" viewBox="0 0 1800.000000 1800.000000"
 preserveAspectRatio="xMidYMid meet">
<g transform="translate(0.000000,1800.000000) scale(0.100000,-0.100000)"
fill="#000000" stroke="none">
<path d="M3185 11700 c-11 -5 -46 -9 -77 -9 -32 -1 -75 -7 -95 -15 -21 -8 -59
-17 -85 -21 -26 -3 -50 -10 -53 -16 -4 -5 -19 -9 -34 -9 -15 0 -36 -7 -47 -15
-10 -8 -27 -15 -36 -15 -10 0 -34 -7 -55 -16 -94 -40 -109 -47 -123 -55 -8 -5
-22 -12 -30 -15 -48 -18 -153 -74 -205 -108 -33 -23 -68 -45 -77 -51 -111 -66
-299 -223 -388 -325 -30 -35 -74 -84 -97 -109 -24 -25 -55 -64 -70 -86 -16
-22 -31 -41 -35 -43 -5 -2 -8 -10 -8 -17 0 -7 -4 -15 -8 -17 -12 -5 -103 -145
-133 -204 -44 -87 -71 -138 -80 -154 -5 -8 -12 -22 -15 -30 -5 -15 -16 -40
-48 -113 -9 -21 -16 -45 -16 -55 0 -9 -7 -26 -15 -36 -8 -11 -15 -29 -15 -41
0 -11 -6 -29 -14 -40 -7 -11 -16 -36 -19 -55 -3 -19 -11 -55 -17 -80 -27 -107
-34 -139 -41 -205 -4 -38 -12 -101 -18 -140 -19 -126 -16 -147 26 -188 33 -34
41 -37 92 -37 46 0 61 5 83 25 34 31 43 67 56 225 12 131 30 235 50 283 7 16
12 41 12 56 0 15 4 31 9 37 4 5 20 46 35 92 24 75 64 173 87 212 5 8 11 21 14
28 13 32 16 39 34 67 11 17 29 48 41 69 18 33 51 83 130 200 73 109 276 314
405 412 92 69 278 184 299 184 7 0 19 7 26 15 7 8 18 15 25 15 8 0 35 11 62
24 50 25 116 51 168 66 17 4 44 13 60 18 51 17 127 35 190 43 152 20 187 45
189 132 0 63 -16 89 -73 113 -38 16 -38 16 -66 4z m-25 -118 c0 -25 -67 -45
-140 -44 -42 1 -59 -3 -76 -19 -24 -22 -69 -23 -69 -1 0 21 103 52 185 56 43
2 76 8 78 15 6 18 22 13 22 -7z m-290 -32 c0 -5 -7 -10 -15 -10 -8 0 -15 5
-15 10 0 6 7 10 15 10 8 0 15 -4 15 -10z m-63 -41 c22 -8 24 -12 13 -19 -18
-12 -90 -13 -90 -2 0 12 22 32 36 32 7 0 25 -5 41 -11z m-123 -35 c24 -9 9
-24 -25 -24 -29 0 -40 14 -16 23 18 8 23 8 41 1z m18 -66 c-5 -5 -34 -11 -65
-12 -48 -3 -60 -8 -91 -39 -19 -19 -45 -38 -58 -42 -13 -4 -45 -19 -71 -33
-41 -22 -50 -24 -57 -11 -7 10 -4 15 9 17 11 2 27 14 35 28 13 19 25 24 57 24
33 0 40 3 35 16 -4 11 4 19 29 30 19 8 35 18 35 23 0 5 34 8 75 8 45 0 72 -4
67 -9z m-384 -153 c21 -19 24 -27 14 -37 -9 -9 -17 -7 -37 12 -26 24 -33 50
-15 50 6 0 23 -11 38 -25z m-40 -47 c24 -24 14 -37 -24 -31 -36 6 -37 5 -30
-20 7 -30 0 -33 -28 -12 -20 15 -16 45 8 45 7 0 16 7 20 15 7 18 37 20 54 3z
m-78 -99 c0 -16 -47 -35 -70 -29 -35 8 -40 40 -6 40 14 0 28 4 31 10 6 10 45
-8 45 -21z m-90 -64 c0 -8 -4 -15 -10 -15 -5 0 -10 7 -10 15 0 8 5 15 10 15 6
0 10 -7 10 -15z m-66 -11 c16 -6 23 -54 9 -54 -19 1 -45 30 -40 45 7 17 9 17
31 9z m-37 -63 c10 -16 3 -28 -58 -91 -38 -40 -69 -76 -69 -80 0 -4 -10 -18
-22 -32 -59 -66 -90 -106 -106 -138 -9 -19 -28 -40 -41 -46 -13 -7 -27 -18
-31 -25 -5 -6 -15 -9 -23 -6 -18 7 -11 47 8 47 15 0 59 56 69 87 4 11 14 24
22 27 8 3 22 22 30 41 8 19 21 35 29 35 11 0 13 8 9 30 -5 23 -3 30 10 30 9 0
16 -7 16 -15 0 -25 27 -17 34 10 4 14 14 29 24 32 30 11 63 50 56 67 -15 39
21 62 43 27z m-67 -19 c0 -14 -39 -46 -47 -39 -3 4 2 16 12 27 19 21 35 26 35
12z m-223 -409 c2 -6 -5 -13 -17 -16 -12 -3 -20 0 -20 7 0 26 29 33 37 9z
m-74 -13 c3 -11 12 -20 21 -20 12 0 13 -5 5 -30 -12 -33 -29 -40 -29 -12 0 10
-7 28 -16 40 -8 12 -12 27 -9 32 10 16 22 12 28 -10z m-29 -85 c15 -23 15 -29
2 -53 -8 -15 -17 -34 -19 -43 -4 -12 -13 -15 -31 -12 -32 7 -35 42 -5 61 14 9
18 19 14 32 -13 42 15 53 39 15z m-84 -156 c0 -22 4 -49 10 -59 11 -20 4 -50
-12 -50 -5 0 -12 9 -15 20 -3 11 -9 20 -14 20 -12 0 -11 52 1 84 14 39 30 31
30 -15z m-43 -109 c3 -11 9 -20 14 -20 16 0 9 -44 -11 -78 -11 -18 -20 -39
-20 -48 0 -9 -7 -14 -17 -12 -28 5 -25 70 5 83 25 11 28 30 7 51 -15 15 -10
44 7 44 5 0 12 -9 15 -20z m-57 -265 c3 -22 10 -46 14 -54 6 -9 2 -19 -13 -30
-15 -11 -24 -34 -31 -75 -5 -32 -12 -61 -15 -64 -13 -13 -20 14 -19 71 1 34
-3 65 -9 68 -5 4 -7 15 -3 25 7 18 8 17 20 -4 19 -35 26 -15 19 50 -6 55 -5
60 13 56 14 -2 20 -14 24 -43z m-91 -315 c-16 -11 -25 11 -14 38 6 15 9 14 18
-6 8 -18 8 -25 -4 -32z m21 -51 c0 -12 -29 -38 -42 -39 -4 0 -2 11 4 25 11 25
38 35 38 14z"/>
<path d="M3175 10977 c-22 -4 -61 -15 -86 -23 -26 -7 -54 -14 -63 -14 -8 0
-30 -6 -48 -14 -18 -8 -53 -22 -78 -32 -136 -53 -281 -133 -385 -212 -88 -67
-148 -125 -285 -272 -33 -35 -159 -229 -193 -295 -63 -125 -110 -234 -123
-290 -3 -11 -11 -42 -19 -70 -53 -190 -59 -290 -19 -342 23 -30 30 -33 79 -33
47 0 56 3 79 31 19 22 26 42 26 72 0 42 22 154 42 212 6 17 13 44 16 60 2 17
11 39 18 50 8 11 14 25 14 32 0 17 96 216 129 268 80 126 186 248 317 365 52
47 191 140 209 140 7 0 16 4 19 9 7 11 117 62 201 93 86 32 144 48 174 48 42
0 96 28 112 57 19 36 14 102 -11 128 -28 30 -76 42 -125 32z m-110 -147 c-3
-5 -13 -10 -21 -10 -8 0 -14 5 -14 10 0 6 9 10 21 10 11 0 17 -4 14 -10z
m-165 -50 c0 -12 -28 -25 -36 -17 -9 9 6 27 22 27 8 0 14 -5 14 -10z m-362
-242 c-6 -18 -28 -21 -28 -4 0 9 7 16 16 16 9 0 14 -5 12 -12z m-60 -53 c-7
-16 -15 -22 -21 -16 -13 13 -1 41 17 41 13 0 14 -4 4 -25z m-71 -61 c-9 -10
-38 16 -31 28 4 6 13 4 22 -6 9 -8 13 -19 9 -22z m-87 -114 c0 -11 -4 -20 -10
-20 -5 0 -10 9 -10 20 0 11 5 20 10 20 6 0 10 -9 10 -20z m-77 -66 c-15 -23
-19 -25 -21 -10 -4 19 30 64 36 47 2 -5 -5 -22 -15 -37z m-73 -159 c0 -8 -4
-15 -10 -15 -5 0 -10 7 -10 15 0 8 5 15 10 15 6 0 10 -7 10 -15z"/>
<path d="M3926 10968 c-14 -13 -52 -75 -84 -138 -54 -106 -130 -252 -253 -485
-26 -49 -70 -133 -97 -185 -27 -52 -66 -126 -87 -165 -33 -63 -36 -75 -31
-125 8 -82 -20 -243 -56 -317 -30 -63 -99 -143 -123 -143 -7 0 -18 -7 -25 -15
-7 -8 -25 -15 -39 -15 -38 0 -68 -37 -130 -160 -30 -58 -75 -145 -102 -195
-26 -49 -60 -112 -74 -140 -15 -27 -48 -90 -75 -140 -26 -49 -74 -141 -106
-203 -31 -62 -61 -115 -65 -118 -5 -2 -162 -5 -350 -5 l-341 -1 -20 43 c-20
46 -89 125 -123 140 -11 5 -27 13 -35 18 -72 41 -160 49 -240 22 -119 -42
-169 -86 -226 -201 -24 -49 -31 -181 -11 -228 8 -21 18 -44 22 -52 25 -61 94
-130 155 -155 8 -4 31 -13 51 -22 44 -18 177 -14 229 8 84 34 174 126 187 192
l6 27 521 0 c411 0 542 3 620 15 55 8 121 15 148 15 41 0 50 4 58 23 6 12 32
63 58 112 138 258 169 317 213 400 79 151 125 237 163 305 19 36 47 88 61 115
15 28 42 79 62 115 84 154 163 314 163 332 0 31 48 24 60 -9 23 -64 54 -128
119 -248 27 -49 75 -139 106 -200 31 -60 78 -150 105 -200 26 -49 80 -153 119
-230 40 -77 101 -194 136 -260 36 -66 67 -127 71 -135 3 -8 9 -22 14 -30 5 -8
41 -78 80 -155 134 -265 221 -430 230 -439 6 -6 10 -16 10 -24 0 -17 114 -166
165 -216 63 -61 134 -110 215 -151 41 -21 87 -44 102 -52 14 -7 36 -13 48 -13
12 0 31 -5 43 -12 12 -7 47 -15 77 -19 30 -5 84 -13 120 -18 76 -12 210 -14
210 -3 -1 4 -9 21 -18 38 -9 18 -30 56 -45 85 -15 30 -32 61 -37 69 -5 8 -11
22 -15 30 -3 8 -27 56 -54 105 -27 50 -88 167 -136 260 -47 94 -122 238 -165
320 -43 83 -111 213 -150 290 -69 135 -79 155 -99 193 -6 9 -35 67 -66 127
-31 61 -91 176 -133 257 -43 81 -102 196 -133 255 -31 59 -91 176 -134 258
-43 83 -105 202 -137 265 -57 111 -67 129 -87 168 -6 9 -42 80 -81 157 -39 77
-75 147 -80 155 -5 8 -11 22 -14 30 -4 8 -35 69 -70 135 -35 66 -110 211 -166
323 -58 114 -114 212 -128 222 -33 26 -75 25 -106 -2z m96 -201 c15 -23 36
-64 47 -90 12 -27 25 -45 31 -42 16 10 24 -26 11 -47 -13 -21 -7 -38 15 -38 8
0 14 -5 14 -12 0 -6 11 -26 25 -44 14 -18 25 -40 25 -48 0 -8 9 -20 20 -26 17
-9 50 -58 50 -75 0 -3 -9 -5 -20 -5 -28 0 -25 -19 4 -30 13 -5 27 -19 31 -31
4 -12 18 -32 32 -45 20 -19 23 -26 13 -43 -7 -14 -8 -27 -2 -38 9 -14 10 -14
17 6 12 37 28 11 21 -35 -3 -26 -2 -44 4 -44 6 0 10 6 10 13 1 6 10 1 21 -12
11 -13 17 -31 14 -39 -3 -8 2 -23 11 -33 9 -10 19 -39 22 -64 4 -37 10 -48 28
-56 13 -4 24 -14 24 -21 0 -8 16 -38 36 -68 19 -29 38 -66 41 -82 3 -15 9 -28
14 -28 14 0 52 -88 45 -105 -4 -10 1 -15 14 -15 14 0 22 -11 30 -41 6 -22 20
-55 31 -72 10 -18 25 -45 33 -62 8 -16 33 -61 55 -100 23 -38 41 -83 41 -98 0
-20 4 -28 13 -24 7 3 21 -1 32 -9 17 -12 17 -14 2 -14 -26 0 -20 -29 11 -55
20 -17 29 -33 29 -55 0 -16 9 -40 20 -53 11 -12 24 -32 27 -44 4 -11 13 -24
21 -27 8 -3 15 -13 15 -22 0 -10 11 -32 25 -49 13 -18 21 -35 18 -39 -3 -3 1
-14 11 -24 9 -11 14 -26 11 -35 -4 -8 2 -21 12 -28 11 -8 26 -36 35 -64 12
-40 20 -49 35 -47 15 2 24 -7 36 -40 10 -24 17 -51 17 -59 0 -9 9 -28 20 -42
11 -14 20 -34 20 -45 0 -11 7 -25 15 -32 9 -7 14 -19 11 -27 -7 -17 3 -43 16
-43 6 0 17 8 24 18 7 9 14 12 14 5 0 -6 -4 -15 -10 -18 -17 -11 -11 -50 10
-63 11 -7 20 -21 20 -32 0 -12 6 -23 14 -26 8 -3 12 -12 9 -20 -3 -7 5 -25 16
-40 12 -15 21 -31 21 -36 0 -5 11 -24 24 -41 14 -18 35 -59 48 -92 12 -33 30
-67 38 -75 9 -8 22 -33 29 -55 17 -55 51 -123 82 -165 14 -19 35 -59 48 -88
12 -29 35 -75 52 -103 23 -40 27 -54 18 -65 -9 -11 -8 -14 5 -14 10 0 16 -8
16 -24 0 -21 -6 -24 -54 -30 -60 -7 -86 -1 -86 20 0 10 -13 14 -45 14 -35 0
-45 4 -45 16 0 10 -5 14 -15 10 -23 -8 -117 37 -191 91 -35 26 -64 50 -64 54
0 4 -11 10 -25 13 -14 4 -25 11 -25 18 0 6 -8 17 -17 25 -13 10 -15 16 -5 19
20 9 15 36 -6 29 -15 -4 -27 7 -53 47 -19 29 -40 64 -47 78 -15 32 -35 64 -44
70 -4 3 -6 12 -6 20 2 35 -3 48 -22 53 -14 3 -20 14 -20 31 0 14 -4 26 -9 26
-5 0 -19 25 -32 55 -13 30 -30 55 -37 55 -9 0 -11 7 -7 19 3 12 -4 33 -21 58
-14 21 -37 61 -51 88 -14 28 -30 56 -37 64 -6 8 -11 28 -11 45 0 23 -5 31 -18
31 -24 0 -40 30 -33 60 4 17 0 27 -19 39 -15 10 -25 26 -25 41 0 14 -8 29 -20
35 -11 6 -20 18 -20 27 0 8 -14 43 -32 77 -17 33 -40 78 -50 99 -10 20 -23 37
-28 37 -6 0 -10 10 -10 23 0 12 -18 47 -40 76 -35 47 -40 58 -34 89 6 32 5 35
-15 29 -18 -4 -21 -2 -16 13 3 10 1 21 -4 24 -5 4 -16 19 -24 34 -8 15 -34 65
-58 112 -47 91 -69 145 -69 171 0 9 -11 22 -25 29 -14 8 -28 24 -31 37 -4 13
-13 23 -21 23 -12 0 -14 8 -10 35 5 33 -5 47 -18 25 -10 -17 -25 -11 -25 9 0
11 6 21 12 23 14 5 -90 118 -108 118 -6 0 -19 9 -29 20 -23 26 -46 25 -68 0
-10 -12 -22 -18 -27 -15 -5 3 -24 -11 -42 -32 -18 -21 -43 -48 -55 -60 -12
-13 -31 -42 -41 -65 -11 -24 -31 -54 -46 -67 -26 -24 -36 -61 -16 -61 6 0 10
-5 10 -11 0 -6 -8 -8 -19 -4 -16 5 -22 -1 -30 -30 -5 -20 -8 -42 -5 -50 3 -7
-8 -27 -25 -44 -17 -18 -31 -38 -31 -47 0 -8 -6 -17 -14 -20 -8 -3 -22 -26
-31 -51 -10 -25 -37 -74 -61 -108 -28 -41 -45 -79 -49 -110 -5 -29 -14 -51
-26 -58 -11 -7 -19 -20 -19 -29 0 -9 -11 -28 -25 -42 -14 -14 -25 -34 -25 -45
0 -11 -5 -23 -10 -26 -6 -4 -20 -27 -32 -51 -11 -25 -29 -49 -39 -55 -11 -5
-19 -16 -19 -24 0 -8 -4 -15 -10 -15 -5 0 -7 -13 -3 -32 4 -22 2 -34 -9 -42
-8 -6 -23 -27 -33 -46 -10 -19 -24 -42 -31 -50 -8 -8 -22 -26 -32 -39 -11 -14
-31 -25 -52 -27 -19 -2 -38 -10 -42 -18 -5 -10 -21 -12 -52 -9 -28 4 -60 0
-83 -10 -28 -11 -44 -12 -57 -5 -11 6 -43 8 -78 4 -74 -9 -148 1 -148 20 0 8
19 32 42 55 35 34 42 46 39 74 -3 37 13 53 34 35 13 -11 14 -8 9 18 -5 23 0
42 16 69 13 21 36 63 53 93 16 30 36 62 43 71 8 8 14 20 14 26 0 6 12 31 26
57 20 37 30 45 45 41 21 -7 26 14 8 32 -9 9 -8 18 5 37 9 14 16 32 16 39 0 8
7 21 17 28 9 8 22 29 30 47 7 17 17 32 22 32 5 0 7 10 3 22 -4 17 -2 20 15 16
16 -4 19 -1 16 12 -11 41 154 210 206 210 11 0 25 15 37 38 10 20 29 51 40 67
36 51 57 98 56 129 0 16 6 40 15 53 16 24 34 136 33 202 0 19 13 68 30 109 16
41 30 83 30 93 0 13 7 19 21 19 18 0 21 4 16 30 -5 21 -2 32 9 38 15 8 30 30
56 82 7 14 23 42 36 64 14 23 22 48 19 62 -3 18 0 24 14 24 11 0 20 10 24 29
3 16 13 35 21 42 8 6 14 16 14 21 0 6 14 27 30 48 17 21 30 49 30 62 0 23 93
191 128 231 23 26 34 21 64 -26z m-712 -2177 c0 -5 -7 -10 -15 -10 -8 0 -15 5
-15 10 0 6 7 10 15 10 8 0 15 -4 15 -10z m-1644 -173 c32 -30 38 -42 41 -88 6
-74 -18 -116 -86 -150 -50 -25 -54 -26 -94 -12 -112 38 -147 163 -69 247 37
39 59 47 119 42 43 -4 59 -11 89 -39z m1032 5 c2 -7 -3 -12 -12 -12 -9 0 -16
7 -16 16 0 17 22 14 28 -4z m-841 -99 c4 -10 11 -21 16 -24 5 -4 6 -12 2 -19
-6 -10 -10 -9 -17 4 -5 9 -16 16 -23 16 -15 0 -20 21 -8 33 11 12 23 8 30 -10z"/>
<path d="M5210 7625 c0 -8 7 -15 15 -15 8 0 15 7 15 15 0 8 -7 15 -15 15 -8 0
-15 -7 -15 -15z"/>
<path d="M3106 10355 c-11 -8 -30 -15 -42 -15 -30 0 -203 -90 -272 -141 -147
-110 -248 -241 -325 -419 -8 -19 -22 -52 -31 -73 -9 -21 -16 -48 -16 -60 -1
-12 -7 -33 -15 -47 -23 -40 -19 -113 8 -138 36 -34 75 -44 116 -31 46 15 70
46 71 89 0 19 7 46 15 60 8 14 14 32 15 41 0 33 84 197 108 212 6 4 12 12 12
17 0 14 27 47 97 116 63 62 196 150 243 160 14 3 39 12 57 20 17 8 35 14 40
14 15 0 39 32 51 68 17 50 -6 94 -62 121 -54 25 -46 24 -70 6z m-219 -220 c8
-22 -6 -33 -17 -15 -13 20 -12 30 0 30 6 0 13 -7 17 -15z m-47 -46 c0 -5 -7
-9 -15 -9 -15 0 -20 12 -9 23 8 8 24 -1 24 -14z m-330 -515 c0 -8 -4 -14 -10
-14 -5 0 -10 9 -10 21 0 11 5 17 10 14 6 -3 10 -13 10 -21z"/>
<path d="M8839 10089 c-6 -3 -10 -401 -12 -1002 -2 -880 0 -997 13 -997 85 -3
333 -1 336 3 3 3 7 1776 4 1984 0 9 -45 13 -166 15 -91 2 -170 0 -175 -3z
m205 -119 c17 -6 28 -21 36 -48 13 -49 3 -1658 -11 -1684 -30 -55 -93 -66
-128 -22 -21 27 -21 32 -20 843 0 449 3 834 7 856 10 56 56 78 116 55z"/>
<path d="M12569 10080 c-145 -76 -148 -287 -7 -376 31 -20 51 -24 117 -24 58
0 82 4 91 15 7 8 18 15 24 15 7 0 24 12 37 28 50 54 59 78 59 152 0 95 -30
145 -117 193 -44 24 -156 23 -204 -3z m111 -89 c0 -6 -4 -13 -10 -16 -19 -12
-10 -26 11 -20 17 6 29 -1 55 -29 38 -42 40 -48 19 -66 -8 -7 -15 -20 -15 -30
0 -12 -11 -19 -37 -23 -33 -6 -41 -3 -65 23 -15 17 -32 30 -37 30 -17 0 -13
37 4 44 9 3 15 18 15 39 0 18 5 38 12 45 14 14 48 16 48 3z"/>
<path d="M14840 10095 c-5 0 -3 -2005 3 -2006 46 -3 319 0 323 4 3 3 5 187 5
409 -1 444 1 462 63 560 68 109 242 165 372 121 81 -27 121 -59 173 -138 l26
-40 2 -454 c2 -250 5 -456 7 -459 3 -2 81 -5 173 -5 l168 0 3 445 c2 407 1
451 -17 533 -24 113 -37 147 -78 211 -66 103 -154 165 -293 208 -43 14 -82 17
-175 14 -130 -4 -184 -19 -293 -82 -28 -16 -90 -85 -98 -108 -3 -11 -15 -18
-31 -18 -20 0 -24 3 -17 18 9 20 22 751 13 770 -5 12 -100 17 -329 17z m196
-149 c18 -13 19 -32 25 -288 4 -224 8 -280 22 -311 18 -41 61 -89 90 -100 9
-3 17 -15 17 -26 0 -10 7 -22 16 -25 13 -5 10 -13 -20 -46 -20 -22 -36 -44
-36 -49 0 -5 -8 -12 -18 -16 -14 -4 -25 -29 -41 -87 -21 -75 -24 -114 -30
-418 -3 -184 -10 -341 -14 -347 -5 -7 -25 -13 -46 -13 -35 0 -39 3 -50 38 -9
28 -10 233 -7 822 2 432 5 797 5 813 1 28 32 67 54 67 7 0 22 -6 33 -14z m677
-571 c5 -10 17 -13 36 -9 21 5 34 0 49 -16 13 -14 22 -18 27 -11 11 19 24 12
31 -15 6 -21 11 -25 32 -19 22 5 24 4 13 -9 -11 -13 -9 -20 11 -45 24 -31 38
-39 38 -21 0 6 4 10 10 10 5 0 7 -13 3 -31 -6 -31 -6 -31 28 -24 30 7 32 6 20
-8 -11 -14 -10 -23 2 -59 15 -41 34 -186 29 -218 -2 -8 -3 -156 -2 -328 0
-197 -4 -321 -10 -333 -16 -30 -65 -25 -87 8 -16 24 -19 65 -24 378 -7 424 -5
412 -116 543 -20 23 -43 42 -50 42 -9 0 -12 7 -8 19 7 24 -22 51 -31 27 -8
-20 -30 -21 -38 -1 -3 8 -17 15 -31 15 -14 0 -28 7 -31 15 -5 11 -16 13 -45 9
-27 -5 -46 -2 -63 10 -33 21 -86 21 -86 0 0 -11 -8 -14 -27 -12 -36 4 -43 28
-8 28 15 0 40 11 57 25 16 14 47 28 69 31 22 4 42 11 46 17 9 15 146 0 156
-18z m-453 -141 c0 -16 -16 -19 -25 -4 -8 13 4 32 16 25 5 -4 9 -13 9 -21z"/>
<path d="M15146 9192 c-3 -6 -1 -14 5 -17 15 -10 25 3 12 16 -7 7 -13 7 -17 1z"/>
<path d="M7462 10078 c-5 -7 -17 -33 -26 -58 -33 -94 -46 -131 -55 -148 -13
-26 -37 -82 -56 -132 -10 -25 -23 -58 -30 -75 -7 -16 -21 -50 -30 -75 -10 -25
-24 -61 -33 -80 -22 -51 -38 -89 -57 -140 -9 -25 -23 -58 -30 -75 -31 -72 -45
-107 -90 -220 -26 -66 -53 -133 -60 -150 -21 -50 -33 -77 -56 -135 -11 -30
-27 -68 -34 -85 -7 -16 -20 -48 -29 -70 -69 -181 -89 -231 -97 -239 -5 -6 -9
-18 -9 -27 0 -10 -6 -30 -14 -46 -8 -15 -22 -46 -31 -68 -10 -22 -24 -53 -31
-68 -8 -16 -14 -34 -14 -40 0 -6 -7 -18 -16 -28 -14 -16 -14 -18 3 -26 10 -4
97 -7 193 -5 l176 3 17 52 c22 65 46 126 58 150 5 10 21 53 35 97 13 43 29 82
34 85 6 4 672 8 893 5 11 0 17 -8 17 -22 0 -13 7 -36 15 -52 8 -15 15 -36 15
-45 0 -9 7 -25 15 -35 8 -11 15 -28 15 -38 0 -10 9 -35 20 -55 11 -21 20 -45
20 -53 0 -9 4 -20 9 -26 5 -5 11 -20 13 -34 l3 -25 185 -6 c102 -3 189 -2 194
3 6 4 -4 34 -22 73 -18 35 -32 70 -32 76 0 6 -6 23 -14 37 -8 15 -35 81 -61
147 -25 66 -52 134 -59 150 -7 17 -21 50 -31 75 -21 55 -53 129 -66 152 -5 10
-9 26 -9 37 0 10 -7 24 -15 31 -8 7 -15 21 -15 31 0 10 -7 35 -16 56 -9 21
-23 53 -30 71 -13 30 -30 69 -59 137 -7 17 -27 66 -45 110 -17 44 -37 94 -45
110 -7 17 -20 50 -30 75 -9 25 -23 59 -30 75 -7 17 -20 50 -30 75 -22 57 -44
107 -61 143 -8 16 -14 35 -14 42 0 7 -6 26 -14 42 -7 15 -20 44 -28 63 -8 19
-23 52 -32 73 -9 21 -16 46 -16 55 0 10 -7 28 -16 40 -15 21 -21 22 -173 22
-115 0 -161 -3 -169 -12z m213 -88 c3 -5 15 -10 25 -10 21 0 100 -128 100
-163 0 -11 14 -44 30 -74 17 -29 30 -63 30 -76 0 -13 7 -32 15 -43 8 -10 15
-27 15 -36 0 -10 10 -27 22 -38 17 -15 22 -31 22 -60 -1 -24 4 -41 12 -44 8
-3 14 -11 14 -18 0 -7 9 -30 20 -51 11 -20 20 -44 20 -53 0 -8 7 -22 15 -30 8
-9 15 -25 15 -37 0 -11 9 -39 19 -61 46 -98 121 -275 121 -285 0 -6 7 -11 16
-11 13 0 15 -7 9 -38 -5 -31 -2 -41 14 -57 12 -10 21 -25 21 -34 0 -32 28 -96
43 -99 20 -4 29 -30 18 -49 -9 -17 1 -48 45 -137 13 -28 24 -56 24 -63 0 -8
17 -40 38 -71 20 -31 40 -62 44 -68 4 -6 0 -23 -8 -38 -7 -16 -14 -37 -14 -47
0 -26 -21 -35 -35 -16 -14 20 -36 22 -53 5 -18 -18 -46 15 -47 55 0 24 -4 31
-16 29 -12 -2 -18 8 -22 40 -3 23 -13 45 -21 50 -9 5 -16 14 -16 20 0 6 -16
33 -35 60 -27 36 -34 55 -29 73 7 30 -20 36 -31 8 -6 -16 -10 -14 -30 12 -21
25 -31 29 -67 28 -71 -3 -73 -3 -363 8 -317 11 -448 6 -485 -18 -38 -25 -100
-89 -100 -104 0 -7 -15 -28 -32 -47 -22 -23 -29 -36 -20 -39 14 -6 16 -59 2
-68 -5 -3 -10 -14 -10 -23 -1 -24 -46 -72 -68 -72 -10 0 -23 -5 -29 -11 -9 -9
-21 -6 -48 11 -36 22 -37 25 -31 67 3 24 13 54 21 66 8 12 15 34 15 49 0 28
15 39 22 16 2 -6 10 -8 17 -4 9 6 9 11 -1 23 -14 18 -12 51 5 71 6 7 12 25 13
39 2 14 9 33 17 42 15 17 32 60 41 104 4 17 13 27 24 27 9 0 23 10 31 22 11
18 11 22 -3 30 -22 12 -21 19 14 93 17 35 30 72 30 81 0 12 7 15 30 12 39 -6
45 4 25 41 -19 37 -19 41 -1 41 16 0 29 41 20 64 -5 12 -2 15 9 10 12 -4 18 2
22 23 21 102 70 223 101 248 17 14 26 34 30 70 4 28 13 60 20 72 8 12 14 31
14 42 0 11 11 28 25 37 25 17 33 48 15 59 -13 8 -13 42 0 50 6 3 15 -4 20 -17
9 -19 9 -17 5 14 -5 29 0 48 20 81 14 24 25 51 25 59 0 8 9 23 20 33 11 10 22
27 26 39 4 11 19 35 33 53 21 27 31 32 53 27 15 -3 35 -1 45 5 23 13 30 13 38
1z"/>
<path d="M7610 9670 c-9 -17 -7 -22 13 -29 15 -6 27 -20 30 -38 10 -50 27
-113 36 -131 9 -17 30 -71 56 -142 7 -19 27 -68 44 -109 17 -40 31 -78 31 -83
0 -6 6 -24 14 -41 7 -18 21 -52 30 -77 10 -25 24 -58 32 -73 8 -16 14 -37 14
-47 0 -9 7 -23 14 -30 16 -13 41 -78 33 -86 -2 -3 -150 -5 -328 -5 -250 -1
-324 2 -328 12 -2 7 3 26 12 43 15 29 39 87 74 181 8 22 21 52 29 67 8 14 14
33 14 41 0 9 6 28 14 44 8 15 21 46 29 68 8 22 29 73 46 114 17 40 31 81 31
90 0 9 4 21 9 27 14 15 41 111 41 144 0 28 -3 31 -21 25 -28 -9 -68 -55 -69
-78 0 -10 -11 -29 -25 -42 -16 -14 -28 -39 -32 -62 -3 -21 -9 -42 -13 -48 -10
-12 -40 -93 -95 -255 -44 -128 -64 -152 -77 -95 -3 17 -4 -2 -1 -41 5 -62 3
-73 -12 -82 -11 -5 -16 -16 -12 -25 3 -8 0 -23 -8 -34 -12 -16 -10 -22 11 -50
13 -17 24 -40 24 -51 0 -11 9 -22 20 -25 20 -5 29 -37 10 -37 -5 0 -10 -5 -10
-11 0 -8 5 -8 15 1 9 7 22 9 32 5 10 -5 34 -11 53 -14 43 -6 450 -5 505 2 22
3 49 6 59 6 20 1 20 1 0 16 -19 15 -19 15 0 30 11 8 32 15 46 15 24 0 26 3 25
42 -1 32 -5 44 -18 46 -20 4 -21 7 -6 30 9 14 7 29 -10 66 -11 27 -21 58 -21
70 0 11 -6 31 -13 43 -39 69 -50 93 -64 138 -8 27 -26 72 -39 99 -13 27 -24
60 -24 73 0 13 -9 36 -19 51 -11 15 -27 50 -36 79 -10 29 -31 67 -49 85 -18
18 -35 41 -39 51 -3 9 -13 17 -21 17 -7 0 -16 9 -19 20 -7 26 -23 26 -37 0z"/>
<path d="M8397 8294 c-13 -13 -7 -44 8 -44 16 0 17 5 6 33 -3 10 -10 15 -14
11z"/>
<path d="M16571 9832 c-6 -2 -8 -30 -6 -65 3 -34 7 -115 9 -181 l5 -118 -132
3 -132 4 0 -150 0 -150 95 5 c52 2 110 4 128 5 l33 0 2 -415 c2 -444 -1 -411
49 -500 4 -8 12 -24 17 -36 20 -46 157 -144 202 -144 8 0 32 -7 54 -15 54 -19
183 -19 275 1 128 27 125 25 128 68 2 21 -2 52 -7 69 -6 17 -14 62 -17 101 -8
102 -4 98 -81 70 -37 -13 -85 -24 -105 -24 -58 0 -124 33 -152 79 l-25 39 -2
347 c0 191 3 351 8 355 4 4 82 4 173 0 91 -4 168 -6 173 -3 4 2 7 69 7 148 0
79 -3 145 -7 148 -5 2 -82 1 -173 -3 -108 -4 -168 -2 -175 5 -6 6 -8 71 -5
175 3 91 4 170 2 175 -2 9 -316 15 -341 7z m209 -139 c18 -22 21 -37 17 -75
-2 -26 0 -51 6 -57 6 -6 6 -15 -1 -26 -7 -14 2 -29 49 -76 33 -33 59 -63 59
-69 0 -5 9 -10 19 -10 36 0 51 -11 42 -29 -6 -10 -6 -23 0 -32 14 -22 11 -29
-14 -29 -13 0 -33 -10 -45 -23 -17 -18 -30 -22 -55 -19 -30 4 -31 3 -12 -11
19 -15 19 -15 0 -53 -11 -22 -26 -44 -33 -49 -11 -9 -13 -64 -10 -273 2 -144
0 -262 -4 -262 -15 0 -8 -28 8 -34 15 -6 15 -8 -1 -26 -17 -19 -15 -50 5 -50
16 0 12 -37 -6 -44 -8 -3 -12 -11 -9 -16 5 -8 11 -7 21 1 17 14 16 15 33 -36
19 -58 38 -75 71 -68 21 4 33 0 46 -16 10 -12 23 -21 28 -21 15 0 86 -33 86
-40 0 -3 -12 -11 -27 -17 -24 -8 -25 -11 -11 -17 10 -5 31 -1 49 8 66 33 103
11 39 -23 -52 -27 -154 -29 -182 -4 -15 14 -24 14 -55 5 -40 -12 -53 -9 -53
14 0 8 -10 14 -26 14 -26 0 -75 40 -87 73 -3 9 -10 17 -15 17 -5 0 -7 11 -5
24 3 13 0 33 -7 45 -10 19 -36 633 -32 754 1 27 -3 40 -16 44 -9 4 -38 28 -63
55 -31 32 -54 48 -71 48 -33 0 -62 32 -53 59 5 16 12 20 29 15 16 -4 36 5 72
34 91 72 102 95 108 202 5 89 5 89 39 104 44 19 43 20 67 -11z m331 -354 c23
-37 -4 -48 -80 -33 -25 5 -31 11 -31 32 0 24 2 24 51 20 28 -3 55 -12 60 -19z"/>
<path d="M16790 9180 c0 -5 7 -10 15 -10 8 0 15 5 15 10 0 6 -7 10 -15 10 -8
0 -15 -4 -15 -10z"/>
<path d="M16942 8278 c6 -18 28 -21 28 -4 0 9 -7 16 -16 16 -9 0 -14 -5 -12
-12z"/>
<path d="M3034 9781 c-42 -19 -86 -68 -99 -109 -4 -14 1 -38 14 -66 25 -50 43
-68 88 -85 59 -24 140 18 169 88 19 44 18 58 -9 110 -18 35 -31 46 -72 62 -28
10 -50 19 -50 19 0 0 -19 -9 -41 -19z"/>
<path d="M10160 9483 c-43 -15 -111 -46 -149 -68 -24 -14 -73 -64 -94 -97 -10
-16 -26 -28 -38 -28 -23 0 -23 -4 1 113 6 33 9 61 6 64 -3 4 -279 7 -331 4 -7
-1 -9 -218 -7 -638 2 -393 -1 -654 -7 -682 -5 -25 -6 -50 -1 -54 8 -9 337 -13
346 -4 3 2 5 192 4 420 0 438 0 443 47 530 16 31 79 97 91 97 5 0 13 5 20 12
20 20 124 48 177 48 86 0 225 -65 241 -112 3 -10 10 -18 15 -18 5 0 9 -8 9
-18 0 -10 7 -27 15 -39 12 -18 15 -92 17 -474 l3 -452 170 1 c94 0 172 1 175
1 3 1 4 191 3 423 -2 403 -11 576 -35 643 -40 112 -86 177 -166 238 -65 48
-104 68 -183 91 -74 21 -266 21 -329 -1z m263 -109 c5 -9 26 -14 52 -14 24 0
47 -4 50 -10 3 -5 15 -10 26 -10 10 0 19 -4 19 -9 0 -5 8 -12 18 -15 9 -4 28
-15 42 -25 21 -16 22 -21 11 -35 -18 -22 -5 -33 20 -18 11 7 24 10 29 7 15 -9
12 -35 -5 -41 -21 -8 -19 -34 3 -34 23 0 41 -30 52 -88 5 -26 10 -219 11 -429
2 -347 1 -384 -15 -408 -13 -19 -24 -25 -44 -23 -51 6 -55 33 -53 335 2 309
-9 424 -44 495 -13 27 -22 55 -19 62 3 9 -3 17 -16 21 -23 7 -70 48 -70 61 0
15 -44 54 -61 54 -12 0 -16 5 -13 14 8 20 -26 29 -40 11 -13 -19 -46 -10 -46
11 0 22 -28 28 -56 14 -21 -12 -33 -11 -77 3 -51 17 -52 17 -66 -3 -15 -23
-43 -26 -60 -7 -9 11 -3 17 29 27 21 7 41 18 44 25 2 7 28 18 58 25 29 7 60
16 68 21 23 12 144 -2 153 -17z m-660 -38 c32 -14 77 -58 77 -76 0 -6 11 -10
25 -10 18 0 25 -5 25 -20 0 -11 5 -20 10 -20 12 0 13 -47 1 -54 -5 -3 -26 -31
-46 -62 -63 -95 -67 -121 -74 -494 -7 -366 -9 -380 -61 -380 -60 0 -60 -5 -60
545 0 275 0 512 0 527 0 53 41 70 103 44z m277 -72 c0 -17 -26 -19 -36 -3 -7
12 15 31 28 23 4 -3 8 -12 8 -20z m-87 -28 c4 -9 14 -12 26 -9 12 3 21 1 21
-6 0 -6 -9 -11 -21 -11 -25 0 -59 17 -59 30 0 15 27 12 33 -4z"/>
<path d="M11475 9483 c-194 -59 -290 -143 -339 -294 -37 -112 -7 -257 72 -350
37 -45 156 -119 190 -119 10 0 23 -5 29 -11 11 -11 37 -18 143 -39 30 -6 76
-18 101 -26 26 -8 61 -14 78 -14 43 0 138 -47 161 -80 13 -19 20 -44 20 -77 0
-42 -4 -53 -32 -80 -58 -53 -90 -63 -212 -63 -113 0 -163 10 -251 53 -67 32
-85 43 -118 74 -62 57 -63 57 -84 21 -11 -18 -40 -55 -64 -82 -24 -27 -56 -62
-72 -79 -15 -17 -26 -36 -24 -41 4 -13 104 -84 172 -121 53 -29 115 -52 180
-65 22 -5 58 -13 80 -19 64 -17 296 -14 373 5 115 28 184 62 257 127 112 99
155 268 105 412 -27 79 -99 170 -155 196 -11 5 -27 13 -35 18 -47 28 -173 71
-208 71 -13 0 -32 5 -42 10 -10 6 -45 14 -77 19 -121 20 -198 48 -245 90 -23
20 -28 33 -28 69 0 55 27 95 83 123 55 29 232 30 305 3 55 -21 134 -68 170
-101 30 -27 36 -24 92 52 21 27 56 68 79 90 45 43 47 50 29 69 -50 48 -239
146 -285 146 -10 0 -40 7 -67 15 -67 21 -312 19 -381 -2z m140 -117 c22 -8 38
-18 35 -23 -5 -8 -13 -8 -68 3 -28 5 -34 3 -39 -15 -6 -24 -8 -25 -33 -11 -15
8 -24 1 -56 -38 -45 -56 -64 -77 -86 -99 -13 -13 -15 -27 -11 -65 4 -32 2 -48
-5 -48 -7 0 3 -28 20 -63 29 -58 34 -63 60 -59 16 3 28 0 28 -7 0 -6 -4 -11
-10 -11 -21 0 -9 -30 14 -36 14 -3 27 -12 30 -20 3 -9 20 -14 42 -14 21 0 51
-4 68 -10 17 -5 58 -17 91 -26 62 -16 73 -21 138 -50 29 -13 43 -14 61 -6 30
13 63 -3 111 -54 28 -29 38 -34 49 -25 11 10 16 8 21 -8 3 -12 15 -26 26 -32
11 -5 17 -14 14 -18 -3 -5 2 -26 11 -47 12 -29 14 -55 10 -109 -4 -38 -7 -85
-7 -102 0 -35 -13 -44 -23 -16 -5 12 -10 13 -18 5 -8 -8 -8 -15 2 -28 12 -14
11 -18 -10 -35 -14 -10 -33 -19 -42 -19 -9 0 -20 -9 -23 -20 -4 -13 -15 -20
-31 -20 -14 0 -24 -6 -24 -14 0 -22 -14 -26 -48 -17 -23 7 -34 6 -43 -5 -17
-20 -40 -17 -46 6 -3 11 -12 20 -19 20 -8 0 -14 4 -14 8 0 19 15 21 37 7 17
-12 28 -13 42 -5 11 5 34 10 52 10 31 0 31 1 15 19 -16 17 -15 19 14 31 20 8
32 22 36 39 3 14 14 42 25 62 31 60 22 152 -20 196 -14 16 -24 31 -23 36 1 4
-2 7 -8 7 -5 0 -24 13 -42 28 -18 16 -45 32 -59 35 -15 4 -50 23 -79 42 -49
33 -53 34 -79 20 -24 -12 -31 -12 -46 -1 -17 12 -16 13 6 21 21 6 22 8 5 12
-10 3 -23 0 -29 -6 -14 -14 -94 -14 -102 -1 -8 13 -48 13 -61 0 -5 -5 -15 -6
-24 0 -12 8 -12 10 3 16 35 13 19 34 -27 34 -43 0 -76 18 -76 41 0 6 -9 7 -21
4 -19 -6 -21 -4 -15 18 4 19 1 26 -13 30 -11 3 -28 25 -41 53 -11 27 -25 56
-29 65 -6 10 -3 23 10 40 22 28 24 46 7 51 -13 5 18 72 54 120 14 19 18 20 32
9 14 -12 16 -10 16 11 0 14 9 33 20 43 20 18 20 17 20 -8 0 -15 3 -27 6 -27
10 0 54 50 54 61 0 5 17 9 38 9 20 0 44 5 52 10 20 13 28 12 75 -4z m255 -4
c0 -5 -9 -17 -19 -26 -15 -14 -24 -15 -40 -6 -38 20 -26 30 47 39 6 0 12 -3
12 -7z m90 -22 c11 -7 9 -11 -13 -19 -37 -14 -47 -14 -47 2 0 27 31 36 60 17z
m58 -38 c2 -7 -3 -12 -12 -12 -9 0 -16 7 -16 16 0 17 22 14 28 -4z m-38 -22
c0 -13 -30 -13 -50 0 -11 7 -7 10 18 10 17 0 32 -4 32 -10z m-595 -995 c17 -7
43 -18 58 -24 15 -6 25 -16 22 -21 -9 -15 -72 -12 -108 4 -18 8 -49 22 -70 30
-22 9 -36 20 -32 26 8 13 87 4 130 -15z m189 -63 c3 -5 -5 -15 -18 -21 -26
-14 -92 -11 -89 4 4 19 97 34 107 17z m134 -37 c-1 -2 -30 -6 -63 -10 -57 -6
-59 -6 -38 9 32 24 97 36 101 18 2 -7 2 -15 0 -17z m70 12 c2 -12 -3 -17 -17
-17 -15 0 -21 6 -21 21 0 25 33 22 38 -4z"/>
<path d="M11306 9114 c-8 -21 -8 -24 3 -24 12 0 22 28 12 35 -5 3 -12 -2 -15
-11z"/>
<path d="M11566 8831 c-7 -11 14 -20 32 -14 6 3 12 9 12 14 0 12 -37 12 -44 0z"/>
<path d="M13565 9483 c-63 -20 -162 -67 -201 -95 -16 -13 -58 -52 -94 -88
-135 -136 -202 -349 -179 -570 17 -158 57 -265 140 -376 44 -58 186 -174 213
-174 8 0 17 -4 20 -9 3 -4 36 -18 73 -31 93 -32 323 -35 393 -7 115 48 200
110 215 158 6 19 39 26 49 11 2 -4 -1 -62 -8 -127 -17 -157 -41 -221 -106
-286 -43 -42 -70 -59 -135 -84 -70 -27 -275 -26 -355 2 -77 26 -147 69 -197
120 -38 39 -45 42 -63 31 -11 -7 -20 -17 -20 -21 0 -10 -74 -106 -124 -161
-20 -22 -36 -47 -36 -55 0 -15 121 -111 139 -111 5 0 14 -7 21 -15 7 -8 20
-15 29 -15 9 0 22 -5 29 -12 14 -14 73 -37 123 -47 19 -4 42 -12 50 -16 23
-15 234 -24 348 -15 273 22 462 141 558 350 72 156 67 99 73 895 3 396 2 724
-2 729 -4 5 -80 9 -170 8 l-163 0 0 -39 c0 -21 4 -55 8 -75 6 -31 5 -39 -11
-47 -16 -9 -23 -5 -44 24 -44 62 -131 117 -237 149 -70 21 -266 20 -336 -1z
m154 -95 c14 -8 30 -8 65 1 52 13 74 7 55 -15 -10 -12 -6 -13 20 -8 18 4 37 2
45 -5 8 -7 25 -11 38 -9 15 2 24 -3 26 -15 3 -16 -2 -18 -36 -16 -23 2 -47 -3
-56 -10 -11 -9 -29 -11 -54 -8 -20 4 -51 1 -69 -5 -27 -10 -35 -9 -51 5 -20
19 -32 13 -32 -14 0 -18 -19 -29 -51 -29 -11 0 -22 -7 -25 -15 -4 -8 -18 -15
-32 -15 -36 0 -121 -92 -172 -183 -53 -97 -68 -170 -58 -277 11 -125 18 -150
54 -205 19 -27 34 -56 34 -63 0 -7 11 -18 25 -24 13 -6 27 -19 30 -29 7 -21
86 -79 107 -79 7 0 22 -6 33 -14 58 -40 263 -64 294 -33 10 10 15 9 25 -5 17
-24 19 -23 59 17 40 40 57 44 57 15 0 -13 -7 -20 -20 -20 -12 0 -26 -12 -35
-30 -9 -17 -24 -30 -34 -30 -11 0 -21 -5 -23 -12 -2 -6 -27 -12 -55 -14 -28
-1 -61 -8 -74 -14 -31 -17 -172 -4 -228 21 -24 10 -52 19 -62 19 -22 0 -89 39
-89 52 0 5 -13 14 -29 19 -15 6 -33 21 -39 34 -7 14 -17 25 -24 26 -15 0 -78
94 -78 115 0 8 -7 26 -16 39 -9 14 -14 31 -11 39 3 8 -1 29 -9 46 -10 18 -18
71 -21 130 -3 55 -10 100 -14 100 -5 0 -9 7 -9 15 0 8 6 15 14 15 9 0 16 18
20 53 4 28 16 72 27 96 10 24 19 49 19 55 0 12 125 159 141 164 5 2 9 13 9 24
0 18 5 20 40 15 34 -4 39 -3 30 8 -9 10 -7 16 9 24 11 6 26 11 34 11 8 0 39 8
68 17 39 13 54 14 57 5 2 -7 8 -12 14 -12 7 0 7 5 -1 13 -21 26 22 38 58 15z
m607 -54 c3 9 17 16 31 16 22 0 24 -3 19 -25 -5 -20 -3 -25 11 -25 17 0 18
-32 20 -568 1 -339 -2 -582 -7 -603 -6 -20 -11 -63 -11 -95 -1 -58 -25 -116
-52 -128 -8 -3 -7 -8 6 -16 21 -14 22 -36 2 -44 -10 -4 -19 2 -24 16 -5 15
-10 18 -15 9 -5 -7 -3 -18 3 -24 16 -16 14 -47 -4 -47 -8 0 -15 5 -15 10 0 6
-9 10 -20 10 -23 0 -27 -18 -5 -26 23 -9 18 -33 -10 -44 -14 -5 -25 -16 -25
-25 0 -8 -9 -15 -20 -15 -12 0 -31 -11 -44 -25 -26 -28 -46 -32 -46 -10 0 8
-7 15 -15 15 -8 0 -15 -6 -15 -14 0 -32 -185 -87 -295 -88 -127 0 -196 9 -218
30 -15 15 -36 22 -61 22 -41 0 -80 16 -71 29 10 18 -30 22 -42 5 -7 -10 -14
-16 -16 -13 -2 2 -14 19 -26 37 -12 17 -29 32 -37 32 -20 0 -17 26 4 34 9 3
25 11 34 18 24 17 35 2 15 -20 -10 -10 -14 -22 -10 -25 11 -12 23 -8 23 7 0
24 29 27 41 4 9 -16 17 -19 45 -15 18 3 36 1 39 -4 4 -5 16 -9 29 -9 31 0 39
-11 20 -25 -13 -9 0 -12 67 -13 46 0 113 -4 148 -7 40 -4 80 -2 108 6 33 9 47
9 56 0 17 -17 25 -13 29 12 3 23 25 27 60 13 24 -11 58 41 37 56 -10 7 -8 8 9
3 17 -5 29 0 47 20 14 14 24 31 22 37 -1 6 16 17 37 23 40 12 61 35 32 35 -23
0 -20 21 4 27 13 3 20 14 20 29 0 13 4 24 10 24 16 0 33 81 31 147 -1 34 3 64
9 68 21 13 -1 86 -37 119 -19 17 -44 39 -54 49 -10 9 -25 17 -33 17 -8 0 -18
5 -21 11 -5 6 -12 4 -20 -8 -11 -15 -15 -15 -29 -4 -19 16 -21 31 -3 31 17 1
73 48 65 55 -4 4 10 28 29 53 59 78 118 224 107 266 -3 13 -6 63 -7 112 -2 68
-5 89 -16 89 -8 0 -19 19 -27 44 -7 24 -26 61 -43 82 l-31 38 22 15 c24 17 20
19 -24 16 -22 -1 -28 3 -28 19 0 16 -6 21 -24 21 -14 0 -28 5 -31 10 -3 6 3
10 13 10 12 0 22 9 25 21 4 16 11 19 27 14 15 -5 28 0 43 14 82 80 88 83 108
65 17 -15 19 -15 25 0z m-296 -49 c0 -15 6 -25 14 -25 17 0 29 -27 16 -35 -5
-3 -17 3 -27 15 -10 11 -23 20 -29 20 -21 0 -35 25 -22 38 22 22 48 14 48 -13z
m-90 -5 c0 -5 -7 -10 -15 -10 -8 0 -15 5 -15 10 0 6 7 10 15 10 8 0 15 -4 15
-10z m167 -16 c-9 -9 -28 6 -21 18 4 6 10 6 17 -1 6 -6 8 -13 4 -17z m-182
-82 c81 -29 110 -48 166 -111 74 -81 93 -141 92 -277 0 -57 -5 -110 -11 -116
-5 -7 -13 -24 -17 -38 -15 -49 -90 -139 -139 -166 -82 -47 -109 -54 -208 -54
-90 0 -105 3 -161 31 -72 35 -107 66 -149 131 -45 69 -67 143 -68 223 0 63 18
146 41 185 5 8 13 24 18 35 12 28 89 103 125 123 96 51 222 65 311 34z"/>
<path d="M13555 9281 c-6 -11 33 -26 43 -16 4 3 0 10 -8 15 -19 12 -27 12 -35
1z"/>
<path d="M13422 9208 c2 -6 10 -14 16 -16 7 -2 10 2 6 12 -7 18 -28 22 -22 4z"/>
<path d="M13907 8294 c-9 -10 2 -24 19 -24 8 0 14 7 14 15 0 15 -21 21 -33 9z"/>
<path d="M13635 7630 c-3 -6 1 -13 10 -16 19 -8 30 0 20 15 -8 14 -22 14 -30
1z"/>
<path d="M13765 7630 c-7 -12 -9 -12 38 -14 41 -3 50 8 15 18 -33 8 -46 7 -53
-4z"/>
<path d="M12502 8781 l3 -693 163 0 c89 1 165 1 170 1 4 1 6 284 4 630 -2 382
1 651 7 683 5 29 6 57 1 62 -5 4 -85 9 -179 10 l-171 1 2 -694z m209 556 c13
-18 16 -76 20 -362 7 -563 5 -723 -8 -736 -6 -6 -29 -12 -49 -13 -66 -2 -67 4
-64 423 2 201 4 433 4 514 l1 149 28 24 c34 29 48 30 68 1z"/>
<path d="M3956 8835 c-3 -9 -6 -35 -6 -58 -1 -23 -7 -60 -15 -82 -8 -22 -15
-46 -15 -54 0 -34 -76 -168 -120 -211 -79 -81 -160 -116 -355 -154 -33 -6 -60
-16 -60 -21 0 -6 45 -19 100 -31 138 -28 213 -61 286 -123 86 -72 162 -230
177 -366 7 -56 9 -60 32 -60 23 0 25 4 30 60 6 58 19 109 45 170 7 17 16 37
19 45 24 55 84 131 132 168 24 17 47 32 52 32 4 0 13 5 20 12 22 22 95 44 225
69 67 13 77 35 20 44 -21 4 -51 11 -67 16 -16 5 -39 9 -52 9 -22 0 -40 7 -144
54 -76 34 -168 139 -199 226 -27 75 -45 148 -50 205 -5 51 -9 60 -27 63 -13 2
-24 -4 -28 -13z m64 -366 c0 -11 13 -32 29 -47 16 -15 34 -37 40 -49 6 -13 18
-23 26 -23 8 0 15 -8 15 -18 0 -11 11 -24 25 -30 14 -6 25 -16 25 -21 0 -4 14
-11 31 -15 37 -7 29 -26 -12 -26 -29 0 -39 -13 -19 -25 15 -9 12 -25 -5 -31
-8 -3 -22 1 -30 10 -21 20 -35 20 -35 1 0 -8 7 -15 15 -15 17 0 20 -26 4 -35
-5 -4 -19 1 -29 10 -18 16 -20 16 -26 1 -3 -9 -3 -23 0 -33 7 -18 -29 -63 -51
-63 -7 0 -13 -8 -13 -19 0 -24 -25 -45 -45 -37 -8 3 -15 16 -15 30 0 16 -7 27
-20 31 -10 3 -27 24 -37 46 -11 25 -22 38 -30 34 -23 -8 -53 17 -47 40 6 26
-11 75 -27 75 -7 0 -21 -8 -31 -17 -14 -12 -21 -14 -30 -5 -13 13 15 44 67 76
44 27 86 68 96 94 5 13 17 22 29 22 11 0 20 7 20 15 0 9 15 22 33 30 43 19 47
18 47 -6z m-220 -275 c0 -9 -5 -14 -12 -12 -18 6 -21 28 -4 28 9 0 16 -7 16
-16z"/>
<path d="M2746 8090 c-310 -5 -340 -7 -347 -22 -5 -10 -13 -26 -19 -35 -5 -10
-28 -54 -51 -98 -22 -44 -62 -120 -89 -170 -27 -49 -67 -126 -90 -170 -23 -44
-64 -120 -91 -170 -27 -49 -52 -97 -55 -105 -4 -8 -16 -26 -26 -39 -10 -13
-18 -33 -18 -44 0 -19 4 -20 118 -14 123 6 206 19 283 43 26 8 54 14 62 14 8
0 28 6 44 14 15 8 46 23 68 33 76 35 181 112 258 189 42 43 77 82 77 87 0 4
12 25 27 44 16 20 40 59 54 87 15 28 46 87 69 131 23 44 50 94 61 110 10 17
23 39 28 50 5 12 16 27 24 34 23 18 10 41 -22 39 -14 -2 -179 -5 -365 -8z
m-27 -108 c163 -3 164 -3 191 -31 l28 -27 -34 -34 c-19 -18 -34 -43 -34 -56 0
-12 -17 -50 -37 -84 -21 -33 -43 -70 -50 -82 -6 -12 -19 -25 -27 -30 -9 -5
-16 -16 -16 -23 0 -9 -10 -15 -23 -15 -16 0 -26 -9 -34 -30 -8 -20 -16 -28
-26 -24 -17 6 -32 -12 -17 -21 17 -10 11 -26 -8 -23 -9 1 -31 -7 -47 -18 -46
-33 -112 -64 -135 -64 -11 0 -20 -6 -20 -14 0 -9 -8 -12 -24 -9 -15 3 -32 -4
-50 -20 -22 -20 -33 -24 -70 -20 -26 3 -46 1 -50 -6 -9 -14 -53 -14 -62 0 -3
6 -1 16 5 22 6 6 11 25 11 43 0 17 9 43 20 56 11 14 36 59 56 99 19 41 40 82
45 92 6 10 7 27 3 39 -5 17 -3 19 14 14 16 -5 22 0 32 26 7 18 12 39 11 47 -1
7 7 22 18 33 12 10 21 25 21 32 0 8 11 24 25 37 13 13 25 32 25 41 0 10 10 23
23 29 12 7 26 18 30 26 6 9 15 12 25 7 10 -5 91 -10 181 -12z"/>
<path d="M2550 7960 c0 -5 7 -10 15 -10 8 0 15 5 15 10 0 6 -7 10 -15 10 -8 0
-15 -4 -15 -10z"/>
</g>
</svg>
